<svg width="512" height="512" xmlns="http://www.w3.org/2000/svg" fill="#000000">

 <g>
  <title>Layer 1</title>
  <g stroke-width="0" id="SVGRepo_bgCarrier"/>
  <g stroke-linejoin="round" stroke-linecap="round" id="SVGRepo_tracerCarrier"/>
  <g stroke="null" id="SVGRepo_iconCarrier">
   <path stroke="null" id="svg_1" d="m116.99995,177.38734c-10.45174,0 -17.96848,5.53052 -22.30982,12.47628c-3.88263,6.21182 -5.498,13.41694 -5.8131,19.72747c-11.8484,5.85878 -24.97385,11.76556 -35.54172,17.80435c-5.54329,3.16765 -10.37625,6.35388 -14.01423,9.77818c-3.63798,3.42353 -6.32214,7.27906 -6.32214,11.8275c0,1.93551 0.94453,3.51295 2.00906,4.67038c1.06608,1.15743 2.34351,2.05628 3.79824,2.89552c2.90907,1.67847 6.57685,3.07746 10.61123,4.28754c5.99349,1.79847 12.70583,3.13552 18.54216,3.70727c-5.80497,10.0027 -13.53036,19.19017 -20.30231,27.99324c-7.82603,10.1738 -14.65837,19.93069 -14.65837,30.76953c0,1.54841 -0.01703,2.75732 0.12,3.97166c0.13742,1.21434 0.4862,2.73023 1.70712,3.9314c1.22131,1.20156 2.71629,1.52441 3.93411,1.65679c1.21782,0.13355 2.44455,0.11768 4.01811,0.11768l43.17807,0c3.13436,0 5.42949,0.19045 7.79042,-1.32776c2.36132,-1.51744 3.22223,-3.59037 4.90458,-6.68718l0.03406,-0.06194l0.03097,-0.06426s3.76379,-7.653 8.25455,-15.24715c2.24519,-3.79669 4.68277,-7.5779 6.80292,-10.25741c1.06066,-1.33937 2.05319,-2.40158 2.76778,-3.00158c0.21833,-0.18271 0.31742,-0.21678 0.45833,-0.2942c0.14052,0.07742 0.24,0.11149 0.45833,0.2942c0.71459,0.60001 1.70712,1.66221 2.76778,3.00158c2.12015,2.67952 4.55773,6.46072 6.80292,10.25741c4.49038,7.59416 8.25455,15.24677 8.25455,15.24677l0.03097,0.06387l0.03406,0.06194c1.68234,3.09681 2.53551,5.15735 4.88135,6.67905c2.34506,1.52131 4.63515,1.3355 7.72538,1.3355l43.36814,0c1.54841,0 2.75616,0.01665 3.96547,-0.11768c1.20892,-0.13432 2.70894,-0.46839 3.91747,-1.67692c1.20776,-1.20853 1.54221,-2.70855 1.67615,-3.91747c0.13471,-1.20853 0.11845,-2.41706 0.11845,-3.96547c0,-10.83884 -6.83234,-20.59573 -14.65837,-30.76992c-6.77157,-8.80269 -14.49695,-17.99015 -20.30231,-27.99324c5.83633,-0.57214 12.54867,-1.90841 18.54216,-3.70688c4.03437,-1.20969 7.70216,-2.60906 10.61123,-4.28715c1.45473,-0.83924 2.73216,-1.73809 3.79747,-2.89552c1.06569,-1.15743 2.00983,-2.73487 2.00983,-4.67038c0,-4.54844 -2.68416,-8.40397 -6.32214,-11.8275c-3.63798,-3.4243 -8.47094,-6.61053 -14.01423,-9.77818c-10.56787,-6.03878 -23.69332,-11.94595 -35.54172,-17.80435c-0.3151,-6.30975 -1.93086,-13.51565 -5.8131,-19.72669c-4.34134,-6.94615 -11.85808,-12.47628 -22.30982,-12.47628z" fill="#000000"/>
  </g>
  <g stroke="null" id="svg_3">
   <path stroke="null" id="svg_2" d="m380.99995,177.38734c-10.45174,0 -17.96848,5.53052 -22.30982,12.47628c-3.88263,6.21182 -5.498,13.41694 -5.8131,19.72747c-11.8484,5.85878 -24.97385,11.76556 -35.54172,17.80434c-5.5433,3.16765 -10.37626,6.35389 -14.01424,9.77819c-3.63798,3.42352 -6.32214,7.27905 -6.32214,11.82749c0,1.93551 0.94453,3.51295 2.00906,4.67038c1.06608,1.15744 2.34351,2.05629 3.79824,2.89552c2.90907,1.67847 6.57685,3.07746 10.61122,4.28754c5.9935,1.79847 12.70583,3.13552 18.54216,3.70727c-5.80497,10.0027 -13.53035,19.19017 -20.30231,27.99324c-7.82603,10.1738 -14.65837,19.9307 -14.65837,30.76954c0,1.5484 -0.01703,2.75732 0.12,3.97166c0.13742,1.21433 0.4862,2.73022 1.70712,3.9314c1.22131,1.20156 2.71629,1.52441 3.93411,1.65679c1.21782,0.13355 2.44455,0.11768 4.01812,0.11768l43.17807,0c3.13436,0 5.42948,0.19046 7.79042,-1.32776c2.36131,-1.51743 3.22223,-3.59036 4.90457,-6.68717l0.03407,-0.06194l0.03096,-0.06426s3.76379,-7.65299 8.25456,-15.24715c2.24518,-3.79669 4.68276,-7.5779 6.80292,-10.25742c1.06066,-1.33937 2.05318,-2.40157 2.76777,-3.00158c0.21833,-0.18271 0.31743,-0.21678 0.45833,-0.2942c0.14052,0.07742 0.24,0.11149 0.45833,0.2942c0.71459,0.60001 1.70712,1.66221 2.76777,3.00158c2.12016,2.67952 4.55774,6.46073 6.80293,10.25742c4.49037,7.59416 8.25455,15.24676 8.25455,15.24676l0.03097,0.06388l0.03406,0.06193c1.68234,3.09681 2.53552,5.15736 4.88135,6.67905c2.34506,1.52131 4.63515,1.3355 7.72538,1.3355l43.36814,0c1.54841,0 2.75617,0.01665 3.96547,-0.11768c1.20892,-0.13432 2.70894,-0.46839 3.91747,-1.67692c1.20775,-1.20853 1.54221,-2.70855 1.67615,-3.91747c0.13471,-1.20853 0.11845,-2.41706 0.11845,-3.96547c0,-10.83884 -6.83234,-20.59573 -14.65837,-30.76992c-6.77157,-8.80268 -14.49695,-17.99015 -20.30231,-27.99324c5.83633,-0.57214 12.54867,-1.90841 18.54216,-3.70688c4.03437,-1.2097 7.70216,-2.60907 10.61122,-4.28715c1.45473,-0.83924 2.73217,-1.73809 3.79747,-2.89552c1.06569,-1.15743 2.00983,-2.73487 2.00983,-4.67038c0,-4.54844 -2.68416,-8.40397 -6.32214,-11.8275c-3.63798,-3.4243 -8.47094,-6.61053 -14.01424,-9.77818c-10.56787,-6.03878 -23.69332,-11.94595 -35.54172,-17.80435c-0.3151,-6.30975 -1.93086,-13.51564 -5.8131,-19.72669c-4.34134,-6.94615 -11.85808,-12.47628 -22.30982,-12.47628z" fill="#000000"/>
  </g>
 </g>
</svg>